<svg width="28" height="31" viewBox="0 0 28 31" fill="none" xmlns="http://www.w3.org/2000/svg">
<path d="M19.0706 13.4231V7.19231C19.0706 5.81522 18.5364 4.49454 17.5856 3.52079C16.6348 2.54705 15.3452 2 14.0006 2C12.656 2 11.3664 2.54705 10.4156 3.52079C9.46477 4.49454 8.93061 5.81522 8.93061 7.19231V13.4231M24.2839 10.6635L25.9914 27.2789C26.0861 28.1997 25.3831 29 24.4786 29H3.52263C3.30929 29.0002 3.09829 28.9545 2.90334 28.8658C2.70839 28.7771 2.53384 28.6473 2.39104 28.485C2.24823 28.3227 2.14036 28.1314 2.07444 27.9237C2.00852 27.7159 1.98601 27.4962 2.00839 27.2789L3.71731 10.6635C3.75673 10.2808 3.93313 9.92651 4.21248 9.66905C4.49184 9.41159 4.85438 9.26916 5.2302 9.26923H22.771C23.5497 9.26923 24.2028 9.87154 24.2839 10.6635ZM9.43761 13.4231C9.43761 13.5608 9.38419 13.6929 9.28911 13.7902C9.19403 13.8876 9.06507 13.9423 8.93061 13.9423C8.79615 13.9423 8.66719 13.8876 8.57211 13.7902C8.47703 13.6929 8.42361 13.5608 8.42361 13.4231C8.42361 13.2854 8.47703 13.1533 8.57211 13.0559C8.66719 12.9586 8.79615 12.9038 8.93061 12.9038C9.06507 12.9038 9.19403 12.9586 9.28911 13.0559C9.38419 13.1533 9.43761 13.2854 9.43761 13.4231ZM19.5776 13.4231C19.5776 13.5608 19.5242 13.6929 19.4291 13.7902C19.334 13.8876 19.205 13.9423 19.0706 13.9423C18.9361 13.9423 18.8072 13.8876 18.7121 13.7902C18.617 13.6929 18.5636 13.5608 18.5636 13.4231C18.5636 13.2854 18.617 13.1533 18.7121 13.0559C18.8072 12.9586 18.9361 12.9038 19.0706 12.9038C19.205 12.9038 19.334 12.9586 19.4291 13.0559C19.5242 13.1533 19.5776 13.2854 19.5776 13.4231Z" stroke="black" stroke-width="2.5" stroke-linecap="round" stroke-linejoin="round"/>
</svg>
