<svg width="28" height="28" viewBox="0 0 28 28" fill="none" xmlns="http://www.w3.org/2000/svg">
<path fill-rule="evenodd" clip-rule="evenodd" d="M27.2327 0.741117C27.7208 1.22927 27.7208 2.02073 27.2327 2.50888L15.7546 13.987L27.2327 25.4649C27.7208 25.9531 27.7208 26.7445 27.2327 27.2327C26.7445 27.7208 25.9531 27.7208 25.4649 27.2327L13.9868 15.7547L2.50888 27.2327C2.02073 27.7208 1.22927 27.7208 0.741117 27.2327C0.252961 26.7445 0.252961 25.9531 0.741117 25.4649L12.2191 13.987L0.741121 2.50913C0.252963 2.02097 0.252959 1.22952 0.741112 0.741358C1.22927 0.253201 2.02072 0.253197 2.50888 0.74135L13.9868 12.2192L25.4649 0.741117C25.9531 0.252961 26.7445 0.252961 27.2327 0.741117Z" fill="white" fill-opacity="0.87"/>
</svg>
