<svg width="29" height="26" viewBox="0 0 29 26" fill="none" xmlns="http://www.w3.org/2000/svg">
<path fill-rule="evenodd" clip-rule="evenodd" d="M13.4538 14.3679C13.4538 14.9202 13.9015 15.3679 14.4538 15.3679C15.0061 15.3679 15.4538 14.9202 15.4538 14.3679V10.0059C15.4538 9.45364 15.0061 9.00593 14.4538 9.00593C13.9015 9.00593 13.4538 9.45364 13.4538 10.0059V14.3679ZM15.4538 18.7136C15.4538 18.1614 15.0061 17.7136 14.4538 17.7136C13.9015 17.7136 13.4538 18.1614 13.4538 18.7136V18.7289C13.4538 19.2812 13.9015 19.7289 14.4538 19.7289C15.0061 19.7289 15.4538 19.2812 15.4538 18.7289V18.7136ZM10.6404 2.24362C12.3024 -0.747869 16.6046 -0.747878 18.2665 2.24362L27.8643 19.5196C29.4796 22.427 27.3772 26 24.0513 26H4.85569C1.52974 26 -0.572598 22.427 1.04263 19.5196L10.6404 2.24362Z" fill="#C4C4C4"/>
</svg>
