<svg width="29" height="28" viewBox="0 0 29 28" fill="none" xmlns="http://www.w3.org/2000/svg">
<path d="M28.3576 13.7813L15.4857 0.918798C15.393 0.825935 15.2829 0.752262 15.1618 0.701995C15.0406 0.651728 14.9107 0.625854 14.7795 0.625854C14.6483 0.625854 14.5183 0.651728 14.3972 0.701995C14.276 0.752262 14.1659 0.825935 14.0732 0.918798L1.20133 13.7813C0.826331 14.1563 0.613831 14.6657 0.613831 15.1969C0.613831 16.3 1.51071 17.1969 2.61383 17.1969H3.97008V26.375C3.97008 26.9282 4.41696 27.375 4.97008 27.375H12.7795V20.375H16.2795V27.375H24.5888C25.142 27.375 25.5888 26.9282 25.5888 26.375V17.1969H26.9451C27.4763 17.1969 27.9857 16.9875 28.3607 16.6094C29.1388 15.8282 29.1388 14.5625 28.3576 13.7813V13.7813Z" fill="#C4C4C4"/>
</svg>
