<svg width="33" height="29" viewBox="0 0 33 29" fill="none" xmlns="http://www.w3.org/2000/svg">
<path d="M0.895325 1.98979C0.895325 1.34121 1.42109 0.81543 2.06968 0.81543H3.9182C5.67438 0.81543 7.16239 2.10882 7.40695 3.8479L7.50272 4.52892H29.3685C31.9062 4.52892 33.6115 7.13103 32.5987 9.45798L28.4223 19.0538C27.8626 20.3395 26.594 21.1709 25.1918 21.1709H10.5335C8.7773 21.1709 7.2893 19.8776 7.04473 18.1384L5.08111 4.17497C4.9996 3.59528 4.50359 3.16415 3.9182 3.16415H2.06968C1.42109 3.16415 0.895325 2.63838 0.895325 1.98979Z" fill="#C4C4C4"/>
<path d="M10.6296 23.5197C9.11628 23.5197 7.88947 24.7465 7.88947 26.2598C7.88947 27.7732 9.11628 29 10.6296 29H10.6453C12.1586 29 13.3855 27.7732 13.3855 26.2598C13.3855 24.7465 12.1586 23.5197 10.6453 23.5197H10.6296Z" fill="#C4C4C4"/>
<path d="M23.9972 23.5197C22.4838 23.5197 21.257 24.7465 21.257 26.2598C21.257 27.7732 22.4838 29 23.9972 29H24.0128C25.5262 29 26.753 27.7732 26.753 26.2598C26.753 24.7465 25.5262 23.5197 24.0128 23.5197H23.9972Z" fill="#C4C4C4"/>
</svg>
